# Blender v2.92.0 OBJ File: ''
# www.blender.org
mtllib book.mtl
o Cube
v -4.024133 -4.732735 -0.918733
v -4.024133 4.732735 -0.918733
v -4.024133 -4.732735 0.918733
v -4.024133 4.732735 0.918733
v 4.024133 -4.732735 -0.918733
v 4.024133 4.732735 -0.918733
v 4.024133 -4.732735 0.918733
v 4.024133 4.732735 0.918733
v 4.024133 4.732735 -0.746470
v -4.141549 -4.732735 -0.746470
v 4.024133 -4.732735 -0.746470
v -4.141549 4.732735 -0.746470
v 4.024133 4.732735 0.724459
v -4.141549 -4.732735 0.724459
v 4.024133 -4.732735 0.724459
v -4.141549 4.732735 0.724459
v -3.800570 4.732735 -0.918733
v -3.800570 -4.732735 0.918733
v -3.800570 4.732735 0.918733
v -3.800570 -4.732735 -0.918733
v -3.917986 4.732735 -0.746470
v -3.917986 -4.732735 -0.746470
v -3.917986 4.732735 0.724459
v -3.917986 -4.732735 0.724459
v 3.824133 -4.732735 0.724459
v 3.824133 -4.732735 -0.746470
v -4.117986 4.732735 -0.746470
v 3.824133 4.732735 -0.746470
v 3.824133 4.732735 0.724459
v -4.117986 4.732735 0.724459
v -4.117986 -4.732735 -0.746470
v -4.117986 -4.732735 0.724459
v 3.706717 -4.542809 0.724459
v 3.706717 -4.542809 -0.746470
v -4.117986 4.542809 -0.746470
v 3.706717 4.542809 -0.746470
v 3.706717 4.542809 0.724459
v -4.117986 4.542809 0.724459
v -4.117986 -4.542809 -0.746470
v -4.117986 -4.542809 0.724459
v -4.200257 4.732735 -0.525831
v -4.200257 -4.732735 -0.525831
v -3.976694 -4.732735 -0.525831
v -3.976694 4.732735 -0.525831
v -4.176694 -4.732735 -0.525831
v -4.176694 4.732735 -0.525831
v 3.648009 -4.542809 -0.525831
v 3.648009 4.542809 -0.525831
v -4.176694 -4.542809 -0.525831
v -4.176694 4.542809 -0.525831
v -4.200257 -4.732735 0.536916
v -3.976694 -4.732735 0.536916
v -3.976694 4.732735 0.536916
v -4.176694 -4.732735 0.536916
v -4.176694 4.732735 0.536916
v 3.648009 4.542809 0.536916
v -4.176694 -4.542809 0.536916
v -4.176694 4.542809 0.536916
v -4.200257 4.732735 0.536916
v 3.648009 -4.542809 0.536916
v -4.239396 4.732735 -0.260144
v 3.608870 -4.542809 -0.260144
v -4.239396 -4.732735 -0.260144
v -4.015833 -4.732735 -0.260144
v -4.015833 4.732735 -0.260144
v -4.215833 -4.732735 -0.260144
v -4.215833 4.732735 -0.260144
v 3.608870 4.542809 -0.260144
v -4.215833 -4.542809 -0.260144
v -4.215833 4.542809 -0.260144
v -4.239396 -4.732735 0.337651
v -4.015833 -4.732735 0.337651
v -4.015833 4.732735 0.337651
v -4.215833 -4.732735 0.337651
v -4.215833 4.732735 0.337651
v 3.608870 4.542809 0.337651
v -4.215833 -4.542809 0.337651
v -4.215833 4.542809 0.337651
v -4.239396 4.732735 0.337651
v 3.608870 -4.542809 0.337651
v -4.249180 4.732735 0.128422
v 3.599085 -4.542809 0.128422
v -4.249180 -4.732735 0.128422
v -4.025618 -4.732735 0.128422
v -4.025618 4.732735 0.128422
v -4.225617 -4.732735 0.128422
v -4.225617 4.732735 0.128422
v 3.599085 4.542809 0.128422
v -4.225617 -4.542809 0.128422
v -4.225617 4.542809 0.128422
v -4.249180 4.732735 -0.065861
v 3.599085 -4.542809 -0.065861
v -4.249180 -4.732735 -0.065861
v -4.025618 -4.732735 -0.065861
v -4.025618 4.732735 -0.065861
v -4.225617 -4.732735 -0.065861
v -4.225617 4.732735 -0.065861
v 3.599085 4.542809 -0.065861
v -4.225617 -4.542809 -0.065861
v -4.225617 4.542809 -0.065861
vt 0.631944 0.723568
vt 0.875000 0.723568
vt 0.875000 0.750000
vt 0.631944 0.750000
vt 0.375000 0.756944
vt 0.625000 0.756944
vt 0.625000 1.000000
vt 0.375000 1.000000
vt 0.375000 0.226562
vt 0.625000 0.226562
vt 0.625000 0.250000
vt 0.375000 0.250000
vt 0.368056 0.723568
vt 0.375000 0.723568
vt 0.375000 0.750000
vt 0.368056 0.750000
vt 0.625000 0.723568
vt 0.625000 0.750000
vt 0.375000 0.493056
vt 0.625000 0.493056
vt 0.625000 0.500000
vt 0.375000 0.500000
vt 0.625000 0.523438
vt 0.375000 0.523438
vt 0.368056 0.500000
vt 0.368056 0.523438
vt 0.631945 0.553457
vt 0.631944 0.523438
vt 0.631944 0.523438
vt 0.631944 0.553457
vt 0.631944 0.500000
vt 0.875000 0.500000
vt 0.875000 0.523438
vt 0.375000 0.000000
vt 0.625000 0.000000
vt 0.625000 0.026432
vt 0.375000 0.026432
vt 0.375000 0.698051
vt 0.625000 0.698051
vt 0.368056 0.698051
vt 0.375000 0.226562
vt 0.625000 0.226562
vt 0.631945 0.698051
vt 0.875000 0.523438
vt 0.125000 0.500000
vt 0.125000 0.523438
vt 0.125000 0.723568
vt 0.125000 0.750000
vt 0.368056 0.723568
vt 0.125000 0.723568
vt 0.125000 0.723568
vt 0.368056 0.723568
vt 0.875000 0.723568
vt 0.631944 0.723568
vt 0.631944 0.723568
vt 0.875000 0.723568
vt 0.368056 0.698051
vt 0.368056 0.698051
vt 0.368056 0.523438
vt 0.125000 0.523438
vt 0.625000 0.026432
vt 0.375000 0.026432
vt 0.375000 0.196543
vt 0.625000 0.196543
vt 0.625000 0.226562
vt 0.375000 0.226562
vt 0.631945 0.698051
vt 0.875000 0.698051
vt 0.125000 0.698051
vt 0.368056 0.523438
vt 0.125000 0.523438
vt 0.631944 0.523438
vt 0.631945 0.553457
vt 0.875000 0.523438
vt 0.625000 0.026432
vt 0.375000 0.026432
vt 0.631944 0.589606
vt 0.631945 0.589606
vt 0.368056 0.553457
vt 0.125000 0.553457
vt 0.875000 0.553457
vt 0.375000 0.160394
vt 0.625000 0.160394
vt 0.368056 0.553457
vt 0.368056 0.553457
vt 0.625000 0.553457
vt 0.375000 0.553457
vt 0.631944 0.589606
vt 0.631945 0.698051
vt 0.625000 0.051949
vt 0.375000 0.051949
vt 0.125000 0.670940
vt 0.368056 0.670940
vt 0.631945 0.670940
vt 0.875000 0.670940
vt 0.368056 0.670940
vt 0.368056 0.670940
vt 0.625000 0.670940
vt 0.631945 0.670940
vt 0.375000 0.670940
vt 0.625000 0.589606
vt 0.375000 0.589606
vt 0.368056 0.589605
vt 0.368055 0.589606
vt 0.368056 0.589606
vt 0.875000 0.589606
vt 0.125000 0.589606
vt 0.631944 0.616039
vt 0.631944 0.616039
vt 0.375000 0.133961
vt 0.625000 0.133961
vt 0.631945 0.616039
vt 0.631944 0.670940
vt 0.625000 0.079060
vt 0.375000 0.079060
vt 0.375000 0.642473
vt 0.625000 0.642473
vt 0.368055 0.642473
vt 0.631944 0.642473
vt 0.368056 0.642473
vt 0.368056 0.642473
vt 0.631945 0.642473
vt 0.875000 0.642473
vt 0.125000 0.642473
vt 0.125000 0.616039
vt 0.368056 0.616039
vt 0.875000 0.616039
vt 0.368056 0.616039
vt 0.368055 0.616039
vt 0.625000 0.616039
vt 0.375000 0.616039
vt 0.631944 0.642473
vt 0.625000 0.107527
vt 0.375000 0.107527
vn 0.0000 -1.0000 0.0000
vn 0.0000 0.0000 1.0000
vn 1.0000 0.0000 0.0000
vn 0.0000 1.0000 0.0000
vn -0.9117 0.0000 0.4110
vn -0.8558 0.0000 0.5173
vn 0.0000 0.0000 -1.0000
vn -0.8263 0.0000 -0.5632
vn -0.9093 0.0000 -0.4161
vn -0.9692 0.0000 0.2461
vn 0.9692 0.0000 -0.2461
vn 0.9543 0.0000 -0.2987
vn 0.9794 0.0000 0.2018
vn 0.9664 0.0000 0.2571
vn 0.9952 0.0000 0.0981
vn -0.9794 0.0000 -0.2018
vn 0.9928 0.0000 -0.1200
vn -0.9928 0.0000 0.1200
vn -0.9952 0.0000 -0.0981
vn 0.9997 -0.0000 0.0252
vn -0.9997 0.0000 0.0234
vn 0.9997 0.0000 -0.0234
vn -0.9997 0.0000 -0.0252
usemtl Material
s 1
f 24/1/1 15/2/1 7/3/1 18/4/1
f 19/5/2 18/6/2 7/7/2 8/8/2
f 9/9/3 11/10/3 5/11/3 6/12/3
f 23/13/4 16/14/4 4/15/4 19/16/4
f 16/14/5 14/17/5 3/18/6 4/15/6
f 17/19/7 20/20/7 1/21/7 2/22/7
f 2/22/8 1/21/8 10/23/9 12/24/9
f 17/25/4 2/22/4 12/24/4 21/26/4
f 43/27/4 22/28/4 31/29/4 45/30/4
f 20/31/1 5/32/1 11/33/1 22/28/1
f 8/34/3 7/35/3 15/36/3 13/37/3
f 59/38/10 51/39/10 14/17/5 16/14/5
f 53/40/4 59/38/4 16/14/4 23/13/4
f 11/10/2 9/9/2 28/41/2 26/42/2
f 51/39/1 52/43/1 24/1/1 14/17/1
f 22/28/7 11/33/7 26/44/7 31/29/7
f 1/21/1 20/31/1 22/28/1 10/23/1
f 6/45/4 17/25/4 21/26/4 9/46/4
f 6/12/7 5/11/7 20/20/7 17/19/7
f 13/47/4 23/13/4 19/16/4 8/48/4
f 4/15/2 3/18/2 18/6/2 19/5/2
f 14/17/1 24/1/1 18/4/1 3/18/1
f 30/49/7 29/50/7 37/51/7 38/52/7
f 25/53/7 32/54/7 40/55/7 33/56/7
f 55/57/11 30/49/12 38/52/12 58/58/11
f 9/46/7 21/26/7 27/59/7 28/60/7
f 53/40/1 23/13/1 30/49/1 55/57/1
f 23/13/2 13/47/2 29/50/2 30/49/2
f 15/2/2 24/1/2 32/54/2 25/53/2
f 13/37/7 15/36/7 25/61/7 29/62/7
f 48/63/13 47/64/13 34/65/14 36/66/14
f 57/67/1 60/68/1 33/56/1 40/55/1
f 56/69/4 58/58/4 38/52/4 37/51/4
f 28/60/2 27/59/2 35/70/2 36/71/2
f 45/30/13 31/29/14 39/72/14 49/73/13
f 31/29/2 26/44/2 34/74/2 39/72/2
f 29/62/7 25/61/7 33/75/7 37/76/7
f 26/42/2 28/41/2 36/66/2 34/65/2
f 66/77/15 45/30/13 49/73/13 69/78/15
f 36/71/4 35/70/4 50/79/4 48/80/4
f 39/72/1 34/74/1 47/81/1 49/73/1
f 68/82/15 62/83/15 47/64/13 48/63/13
f 21/26/1 44/84/1 46/85/1 27/59/1
f 27/59/14 46/85/13 50/79/13 35/70/14
f 10/23/1 22/28/1 43/27/1 42/86/1
f 21/26/4 12/24/4 41/87/4 44/84/4
f 12/24/9 10/23/9 42/86/16 41/87/16
f 64/88/4 43/27/4 45/30/4 66/77/4
f 24/1/4 52/43/4 54/89/4 32/54/4
f 37/76/12 33/75/12 60/90/11 56/91/11
f 32/54/12 54/89/11 57/67/11 40/55/12
f 76/92/4 78/93/4 58/58/4 56/69/4
f 77/94/1 80/95/1 60/68/1 57/67/1
f 73/96/1 53/40/1 55/57/1 75/97/1
f 75/97/17 55/57/11 58/58/11 78/93/17
f 71/98/1 72/99/1 52/43/1 51/39/1
f 73/96/4 79/100/4 59/38/4 53/40/4
f 79/100/18 71/98/18 51/39/10 59/38/10
f 41/87/16 42/86/16 63/101/19 61/102/19
f 44/84/4 41/87/4 61/102/4 65/103/4
f 42/86/1 43/27/1 64/88/1 63/101/1
f 46/85/13 67/104/15 70/105/15 50/79/13
f 44/84/1 65/103/1 67/104/1 46/85/1
f 49/73/1 47/81/1 62/106/1 69/78/1
f 48/80/4 50/79/4 70/105/4 68/107/4
f 94/108/4 64/88/4 66/77/4 96/109/4
f 98/110/20 92/111/20 62/83/15 68/82/15
f 96/109/20 66/77/15 69/78/15 99/112/20
f 54/89/11 74/113/17 77/94/17 57/67/11
f 56/91/11 60/90/11 80/114/17 76/115/17
f 52/43/4 72/99/4 74/113/4 54/89/4
f 81/116/21 83/117/21 71/98/18 79/100/18
f 85/118/4 81/116/4 79/100/4 73/96/4
f 83/117/1 84/119/1 72/99/1 71/98/1
f 87/120/22 75/97/17 78/93/17 90/121/22
f 85/118/1 73/96/1 75/97/1 87/120/1
f 89/122/1 82/123/1 80/95/1 77/94/1
f 88/124/4 90/121/4 78/93/4 76/92/4
f 98/125/4 100/126/4 90/121/4 88/124/4
f 99/112/1 92/127/1 82/123/1 89/122/1
f 95/128/1 85/118/1 87/120/1 97/129/1
f 97/129/20 87/120/22 90/121/22 100/126/20
f 93/130/1 94/108/1 84/119/1 83/117/1
f 95/128/4 91/131/4 81/116/4 85/118/4
f 91/131/23 93/130/23 83/117/21 81/116/21
f 74/113/17 86/132/22 89/122/22 77/94/17
f 76/115/17 80/114/17 82/133/22 88/134/22
f 72/99/4 84/119/4 86/132/4 74/113/4
f 61/102/19 63/101/19 93/130/23 91/131/23
f 65/103/4 61/102/4 91/131/4 95/128/4
f 63/101/1 64/88/1 94/108/1 93/130/1
f 67/104/15 97/129/20 100/126/20 70/105/15
f 65/103/1 95/128/1 97/129/1 67/104/1
f 69/78/1 62/106/1 92/127/1 99/112/1
f 68/107/4 70/105/4 100/126/4 98/125/4
f 86/132/22 96/109/20 99/112/20 89/122/22
f 88/134/22 82/133/22 92/111/20 98/110/20
f 84/119/4 94/108/4 96/109/4 86/132/4
